<svg xmlns="http://www.w3.org/2000/svg"
  width="300mm" height="150mm"
  viewBox="0 0 3000 1500">
  
    <rect width="3000" height="1500" fill="#0A2342"/>
    <rect x="75" y="75" width="2850" height="1350" rx="24" fill="none" stroke="#C99532" stroke-width="8"/>
    
    <g transform="translate(190 260) scale(0.92)">
      <path fill="#F7F4ED" d="M120 120 L520 205 L520 300 L330 340 L330 790 L430 810 L430 885 L120 950 Z"/>
      <path fill="#C99532" d="M485 300 L880 190 L880 950 L485 860 L485 785 L670 750 L670 430 L485 370 Z"/>
      <circle cx="626" cy="585" r="17" fill="#F7F4ED"/>
    </g>
    <line x1="1200" y1="350" x2="1200" y2="1150" stroke="#C99532" stroke-width="8"/>
    <text x="1370" y="590" fill="#C99532" font-family="Noto Sans, DejaVu Sans, sans-serif" font-size="330" font-weight="700" letter-spacing="12" text-anchor="start">GS</text>
    <text x="1370" y="790" fill="#F7F4ED" font-family="Noto Sans, DejaVu Sans, sans-serif" font-size="150" font-weight="700" letter-spacing="8" text-anchor="start">CUSTOM DOORS</text>
    <text x="1375" y="915" fill="#C99532" font-family="Noto Sans, DejaVu Sans, sans-serif" font-size="74" font-weight="700" letter-spacing="18" text-anchor="start">INC.</text>
    <line x1="1375" y1="985" x2="2705" y2="985" stroke="#C99532" stroke-width="5"/>
    <text x="1375" y="1085" fill="#F7F4ED" font-family="Noto Sans, DejaVu Sans, sans-serif" font-size="55" font-weight="400" letter-spacing="0" text-anchor="start">4885 Fulton Dr Ste C  •  Fairfield, CA 94534-4206</text>
    <text x="1375" y="1180" fill="#C99532" font-family="Noto Sans, DejaVu Sans, sans-serif" font-size="82" font-weight="700" letter-spacing="2" text-anchor="start">(650) 634-8570</text>
    
</svg>
